<svg xmlns="http://www.w3.org/2000/svg" xmlns:xlink="http://www.w3.org/1999/xlink" width="500" zoomAndPan="magnify" viewBox="0 0 375 374.999991" height="500" preserveAspectRatio="xMidYMid meet" version="1.0"><defs><clipPath id="e3f7486f54"><path d="M 187.5 0 C 83.945312 0 0 83.945312 0 187.5 C 0 291.054688 83.945312 375 187.5 375 C 291.054688 375 375 291.054688 375 187.5 C 375 83.945312 291.054688 0 187.5 0 Z M 187.5 0 " clip-rule="nonzero"/></clipPath><clipPath id="e348a73a8b"><path d="M 76.339844 110 L 197 110 L 197 298.339844 L 76.339844 298.339844 Z M 76.339844 110 " clip-rule="nonzero"/></clipPath><clipPath id="c48aa25434"><path d="M 178 76.339844 L 298.339844 76.339844 L 298.339844 298.339844 L 178 298.339844 Z M 178 76.339844 " clip-rule="nonzero"/></clipPath><clipPath id="d0a2526ec4"><path d="M 110 238 L 162 238 L 162 298.339844 L 110 298.339844 Z M 110 238 " clip-rule="nonzero"/></clipPath><clipPath id="a357bfd30a"><path d="M 213 238 L 265 238 L 265 298.339844 L 213 298.339844 Z M 213 238 " clip-rule="nonzero"/></clipPath></defs><g clip-path="url(#e3f7486f54)"><rect x="-37.5" width="450" fill="#824f01" y="-37.499999" height="449.999989" fill-opacity="1"/></g><g clip-path="url(#e348a73a8b)"><path fill="#ba9e70" d="M 187.496094 298.65625 C 192.214844 298.65625 196.03125 294.839844 196.03125 290.121094 L 196.03125 119.4375 C 196.03125 116.917969 194.929688 114.554688 193.015625 112.917969 C 191.097656 111.300781 188.5625 110.601562 186.097656 111.019531 L 83.6875 128.085938 C 79.570312 128.769531 76.550781 132.339844 76.550781 136.503906 L 76.550781 290.121094 C 76.550781 294.839844 80.371094 298.65625 85.085938 298.65625 L 187.496094 298.65625 " fill-opacity="1" fill-rule="evenodd"/></g><g clip-path="url(#c48aa25434)"><path fill="#fffffe" d="M 178.964844 298.65625 L 178.964844 102.367188 C 178.964844 98.203125 181.980469 94.632812 186.097656 93.949219 L 288.507812 76.882812 C 290.972656 76.464844 293.507812 77.164062 295.425781 78.78125 C 297.34375 80.417969 298.441406 82.78125 298.441406 85.300781 L 298.441406 290.121094 C 298.441406 294.839844 294.625 298.65625 289.90625 298.65625 L 178.964844 298.65625 " fill-opacity="1" fill-rule="evenodd"/></g><path fill="#fffffe" d="M 127.757812 200.511719 C 127.757812 198.160156 125.839844 196.246094 123.492188 196.246094 L 114.957031 196.246094 C 112.605469 196.246094 110.6875 198.160156 110.6875 200.511719 L 110.6875 209.046875 C 110.6875 211.394531 112.605469 213.3125 114.957031 213.3125 L 123.492188 213.3125 C 125.839844 213.3125 127.757812 211.394531 127.757812 209.046875 L 127.757812 200.511719 " fill-opacity="1" fill-rule="evenodd"/><path fill="#fffffe" d="M 127.757812 200.511719 C 127.757812 198.160156 125.839844 196.246094 123.492188 196.246094 L 114.957031 196.246094 C 112.605469 196.246094 110.6875 198.160156 110.6875 200.511719 L 110.6875 209.046875 C 110.6875 211.394531 112.605469 213.3125 114.957031 213.3125 L 123.492188 213.3125 C 125.839844 213.3125 127.757812 211.394531 127.757812 209.046875 L 127.757812 200.511719 " fill-opacity="1" fill-rule="evenodd"/><path fill="#fffffe" d="M 161.894531 200.511719 C 161.894531 198.160156 159.976562 196.246094 157.628906 196.246094 L 149.09375 196.246094 C 146.742188 196.246094 144.824219 198.160156 144.824219 200.511719 L 144.824219 209.046875 C 144.824219 211.394531 146.742188 213.3125 149.09375 213.3125 L 157.628906 213.3125 C 159.976562 213.3125 161.894531 211.394531 161.894531 209.046875 L 161.894531 200.511719 " fill-opacity="1" fill-rule="evenodd"/><path fill="#fffffe" d="M 161.894531 200.511719 C 161.894531 198.160156 159.976562 196.246094 157.628906 196.246094 L 149.09375 196.246094 C 146.742188 196.246094 144.824219 198.160156 144.824219 200.511719 L 144.824219 209.046875 C 144.824219 211.394531 146.742188 213.3125 149.09375 213.3125 L 157.628906 213.3125 C 159.976562 213.3125 161.894531 211.394531 161.894531 209.046875 L 161.894531 200.511719 " fill-opacity="1" fill-rule="evenodd"/><path fill="#fffffe" d="M 161.894531 166.375 C 161.894531 164.023438 159.976562 162.109375 157.628906 162.109375 L 149.09375 162.109375 C 146.742188 162.109375 144.824219 164.023438 144.824219 166.375 L 144.824219 174.910156 C 144.824219 177.257812 146.742188 179.175781 149.09375 179.175781 L 157.628906 179.175781 C 159.976562 179.175781 161.894531 177.257812 161.894531 174.910156 L 161.894531 166.375 " fill-opacity="1" fill-rule="evenodd"/><path fill="#fffffe" d="M 161.894531 166.375 C 161.894531 164.023438 159.976562 162.109375 157.628906 162.109375 L 149.09375 162.109375 C 146.742188 162.109375 144.824219 164.023438 144.824219 166.375 L 144.824219 174.910156 C 144.824219 177.257812 146.742188 179.175781 149.09375 179.175781 L 157.628906 179.175781 C 159.976562 179.175781 161.894531 177.257812 161.894531 174.910156 L 161.894531 166.375 " fill-opacity="1" fill-rule="evenodd"/><path fill="#fffffe" d="M 127.757812 166.375 C 127.757812 164.023438 125.839844 162.109375 123.492188 162.109375 L 114.957031 162.109375 C 112.605469 162.109375 110.6875 164.023438 110.6875 166.375 L 110.6875 174.910156 C 110.6875 177.257812 112.605469 179.175781 114.957031 179.175781 L 123.492188 179.175781 C 125.839844 179.175781 127.757812 177.257812 127.757812 174.910156 L 127.757812 166.375 " fill-opacity="1" fill-rule="evenodd"/><path fill="#fffffe" d="M 127.757812 166.375 C 127.757812 164.023438 125.839844 162.109375 123.492188 162.109375 L 114.957031 162.109375 C 112.605469 162.109375 110.6875 164.023438 110.6875 166.375 L 110.6875 174.910156 C 110.6875 177.257812 112.605469 179.175781 114.957031 179.175781 L 123.492188 179.175781 C 125.839844 179.175781 127.757812 177.257812 127.757812 174.910156 L 127.757812 166.375 " fill-opacity="1" fill-rule="evenodd"/><path fill="#ba9e70" d="M 230.167969 200.511719 C 230.167969 198.160156 228.25 196.246094 225.902344 196.246094 L 217.367188 196.246094 C 215.015625 196.246094 213.101562 198.160156 213.101562 200.511719 L 213.101562 209.046875 C 213.101562 211.394531 215.015625 213.3125 217.367188 213.3125 L 225.902344 213.3125 C 228.25 213.3125 230.167969 211.394531 230.167969 209.046875 L 230.167969 200.511719 " fill-opacity="1" fill-rule="evenodd"/><path fill="#ba9e70" d="M 230.167969 200.511719 C 230.167969 198.160156 228.25 196.246094 225.902344 196.246094 L 217.367188 196.246094 C 215.015625 196.246094 213.101562 198.160156 213.101562 200.511719 L 213.101562 209.046875 C 213.101562 211.394531 215.015625 213.3125 217.367188 213.3125 L 225.902344 213.3125 C 228.25 213.3125 230.167969 211.394531 230.167969 209.046875 L 230.167969 200.511719 " fill-opacity="1" fill-rule="evenodd"/><path fill="#ba9e70" d="M 264.304688 200.511719 C 264.304688 198.160156 262.386719 196.246094 260.039062 196.246094 L 251.503906 196.246094 C 249.152344 196.246094 247.238281 198.160156 247.238281 200.511719 L 247.238281 209.046875 C 247.238281 211.394531 249.152344 213.3125 251.503906 213.3125 L 260.039062 213.3125 C 262.386719 213.3125 264.304688 211.394531 264.304688 209.046875 L 264.304688 200.511719 " fill-opacity="1" fill-rule="evenodd"/><path fill="#ba9e70" d="M 264.304688 200.511719 C 264.304688 198.160156 262.386719 196.246094 260.039062 196.246094 L 251.503906 196.246094 C 249.152344 196.246094 247.238281 198.160156 247.238281 200.511719 L 247.238281 209.046875 C 247.238281 211.394531 249.152344 213.3125 251.503906 213.3125 L 260.039062 213.3125 C 262.386719 213.3125 264.304688 211.394531 264.304688 209.046875 L 264.304688 200.511719 " fill-opacity="1" fill-rule="evenodd"/><path fill="#ba9e70" d="M 264.304688 166.375 C 264.304688 164.023438 262.386719 162.109375 260.039062 162.109375 L 251.503906 162.109375 C 249.152344 162.109375 247.238281 164.023438 247.238281 166.375 L 247.238281 174.910156 C 247.238281 177.257812 249.152344 179.175781 251.503906 179.175781 L 260.039062 179.175781 C 262.386719 179.175781 264.304688 177.257812 264.304688 174.910156 L 264.304688 166.375 " fill-opacity="1" fill-rule="evenodd"/><path fill="#ba9e70" d="M 264.304688 166.375 C 264.304688 164.023438 262.386719 162.109375 260.039062 162.109375 L 251.503906 162.109375 C 249.152344 162.109375 247.238281 164.023438 247.238281 166.375 L 247.238281 174.910156 C 247.238281 177.257812 249.152344 179.175781 251.503906 179.175781 L 260.039062 179.175781 C 262.386719 179.175781 264.304688 177.257812 264.304688 174.910156 L 264.304688 166.375 " fill-opacity="1" fill-rule="evenodd"/><path fill="#ba9e70" d="M 230.167969 166.375 C 230.167969 164.023438 228.25 162.109375 225.902344 162.109375 L 217.367188 162.109375 C 215.015625 162.109375 213.101562 164.023438 213.101562 166.375 L 213.101562 174.910156 C 213.101562 177.257812 215.015625 179.175781 217.367188 179.175781 L 225.902344 179.175781 C 228.25 179.175781 230.167969 177.257812 230.167969 174.910156 L 230.167969 166.375 " fill-opacity="1" fill-rule="evenodd"/><path fill="#ba9e70" d="M 230.167969 166.375 C 230.167969 164.023438 228.25 162.109375 225.902344 162.109375 L 217.367188 162.109375 C 215.015625 162.109375 213.101562 164.023438 213.101562 166.375 L 213.101562 174.910156 C 213.101562 177.257812 215.015625 179.175781 217.367188 179.175781 L 225.902344 179.175781 C 228.25 179.175781 230.167969 177.257812 230.167969 174.910156 L 230.167969 166.375 " fill-opacity="1" fill-rule="evenodd"/><path fill="#ba9e70" d="M 230.167969 132.238281 C 230.167969 129.886719 228.25 127.972656 225.902344 127.972656 L 217.367188 127.972656 C 215.015625 127.972656 213.101562 129.886719 213.101562 132.238281 L 213.101562 140.773438 C 213.101562 143.121094 215.015625 145.039062 217.367188 145.039062 L 225.902344 145.039062 C 228.25 145.039062 230.167969 143.121094 230.167969 140.773438 L 230.167969 132.238281 " fill-opacity="1" fill-rule="evenodd"/><path fill="#ba9e70" d="M 230.167969 132.238281 C 230.167969 129.886719 228.25 127.972656 225.902344 127.972656 L 217.367188 127.972656 C 215.015625 127.972656 213.101562 129.886719 213.101562 132.238281 L 213.101562 140.773438 C 213.101562 143.121094 215.015625 145.039062 217.367188 145.039062 L 225.902344 145.039062 C 228.25 145.039062 230.167969 143.121094 230.167969 140.773438 L 230.167969 132.238281 " fill-opacity="1" fill-rule="evenodd"/><path fill="#ba9e70" d="M 264.304688 132.238281 C 264.304688 129.886719 262.386719 127.972656 260.039062 127.972656 L 251.503906 127.972656 C 249.152344 127.972656 247.238281 129.886719 247.238281 132.238281 L 247.238281 140.773438 C 247.238281 143.121094 249.152344 145.039062 251.503906 145.039062 L 260.039062 145.039062 C 262.386719 145.039062 264.304688 143.121094 264.304688 140.773438 L 264.304688 132.238281 " fill-opacity="1" fill-rule="evenodd"/><path fill="#ba9e70" d="M 264.304688 132.238281 C 264.304688 129.886719 262.386719 127.972656 260.039062 127.972656 L 251.503906 127.972656 C 249.152344 127.972656 247.238281 129.886719 247.238281 132.238281 L 247.238281 140.773438 C 247.238281 143.121094 249.152344 145.039062 251.503906 145.039062 L 260.039062 145.039062 C 262.386719 145.039062 264.304688 143.121094 264.304688 140.773438 L 264.304688 132.238281 " fill-opacity="1" fill-rule="evenodd"/><g clip-path="url(#d0a2526ec4)"><path fill="#d0bea0" d="M 127.757812 255.984375 L 127.757812 298.65625 L 110.6875 298.65625 L 110.6875 247.449219 C 110.6875 242.734375 114.507812 238.914062 119.222656 238.914062 L 153.359375 238.914062 C 158.078125 238.914062 161.894531 242.734375 161.894531 247.449219 L 161.894531 298.65625 L 144.824219 298.65625 L 144.824219 255.984375 L 127.757812 255.984375 " fill-opacity="1" fill-rule="evenodd"/></g><g clip-path="url(#a357bfd30a)"><path fill="#d0bea0" d="M 230.167969 255.984375 L 230.167969 298.65625 L 213.101562 298.65625 L 213.101562 247.449219 C 213.101562 242.734375 216.917969 238.914062 221.632812 238.914062 L 255.769531 238.914062 C 260.488281 238.914062 264.304688 242.734375 264.304688 247.449219 L 264.304688 298.65625 L 247.238281 298.65625 L 247.238281 255.984375 L 230.167969 255.984375 " fill-opacity="1" fill-rule="evenodd"/></g></svg>